<?xml version="1.0" standalone="no"?>
<!DOCTYPE svg PUBLIC "-//W3C//DTD SVG 1.1//EN" "http://www.w3.org/Graphics/SVG/1.1/DTD/svg11.dtd" >
<!--
2013-9-30: Created.
-->
<svg>
<metadata>
Created by iconfont
</metadata>
<defs>

<font id="iconfont" horiz-adv-x="1024" >
  <font-face
    font-family="iconfont"
    font-weight="500"
    font-stretch="normal"
    units-per-em="1024"
    ascent="896"
    descent="-128"
  />
    <missing-glyph />
    
    <glyph glyph-name="x" unicode="x" horiz-adv-x="1001"
d="M281 543q-27 -1 -53 -1h-83q-18 0 -36.5 -6t-32.5 -18.5t-23 -32t-9 -45.5v-76h912v41q0 16 -0.5 30t-0.5 18q0 13 -5 29t-17 29.5t-31.5 22.5t-49.5 9h-133v-97h-438v97zM955 310v-52q0 -23 0.5 -52t0.5 -58t-10.5 -47.5t-26 -30t-33 -16t-31.5 -4.5q-14 -1 -29.5 -0.5
t-29.5 0.5h-32l-45 128h-439l-44 -128h-29h-34q-20 0 -45 1q-25 0 -41 9.5t-25.5 23t-13.5 29.5t-4 30v167h911zM163 247q-12 0 -21 -8.5t-9 -21.5t9 -21.5t21 -8.5q13 0 22 8.5t9 21.5t-9 21.5t-22 8.5zM316 123q-8 -26 -14 -48q-5 -19 -10.5 -37t-7.5 -25t-3 -15t1 -14.5
t9.5 -10.5t21.5 -4h37h67h81h80h64h36q23 0 34 12t2 38q-5 13 -9.5 30.5t-9.5 34.5q-5 19 -11 39h-368zM336 498v228q0 11 2.5 23t10 21.5t20.5 15.5t34 6h188q31 0 51.5 -14.5t20.5 -52.5v-227h-327z" />
    

    
    <glyph glyph-name="infenicon17" unicode="&#59312;" d="M488.32 300m-128 0a2 2 0 1 0 256 0 2 2 0 1 0-256 0Z"  horiz-adv-x="1024" />

    
    <glyph glyph-name="shanchu" unicode="&#58905;" d="M983.709365 499.313441c-25.787316 60.969607-62.697971 115.717512-109.708658 162.729222-47.006594 47.010687-101.753475 83.921341-162.728198 109.708658C648.131447 798.456542 581.079308 812 512.023536 812c-69.101821 0-136.15396-13.543458-199.300139-40.248679-60.969607-25.787316-115.718535-62.697971-162.729222-109.708658C102.988606 615.030953 66.073858 560.284071 40.284495 499.313441c-26.705222-63.141062-40.246633-130.198318-40.246633-199.325721 0-69.102844 13.542434-136.160099 40.246633-199.301162 25.789363-60.969607 62.704111-115.722628 109.709681-162.729222 47.010687-47.010687 101.759615-83.921341 162.729222-109.708658 63.146179-26.710338 130.198318-40.248679 199.300139-40.248679 69.056795 0 136.107911 13.538341 199.25409 40.248679 60.969607 25.787316 115.717512 62.697971 162.723082 109.708658 47.010687 47.006594 83.921341 101.759615 109.708658 162.729222 26.710338 63.141062 40.252773 130.198318 40.252773 199.301162C1023.958044 369.116147 1010.419703 436.167263 983.709365 499.313441zM723.444736 83.343565c-0.00921-0.011256-0.014326-0.016373-0.025583-0.026606-14.213723-14.214746-37.263695-14.230096-51.493791-0.021489L507.567038 247.34271 343.519798 82.984385c-0.00921-0.010233-0.020466-0.021489-0.025583-0.025583-14.213723-14.21577-37.258579-14.230096-51.493791-0.026606-14.255679 14.230096-14.277168 37.294394-0.068562 51.535747l164.046217 164.359348L291.620777 462.877601c-14.240329 14.213723-14.260795 37.280068-0.047072 51.514257 0.005117 0.010233 0.014326 0.021489 0.025583 0.026606 14.19428 14.198374 37.239136 14.208607 51.473325 0.005117L507.430938 350.376341l164.051333 164.359348 0.021489 0.026606c14.214746 14.213723 37.263695 14.229073 51.514257 0.004093 14.240329-14.213723 14.260795-37.279045 0.047072-51.519374L559.013757 298.889713l164.364465-164.04724C737.611387 120.627726 737.639017 97.563428 723.444736 83.343565z"  horiz-adv-x="1024" />

    
    <glyph glyph-name="loading" unicode="&#59037;" d="M962 384c-1.125 58.753-13.866 117.337-37.434 170.916-23.456 53.606-57.544 102.178-99.366 142.313-41.794 40.163-91.35 71.916-145.013 92.869-53.606 21.038-111.263 31.078-168.216 29.841-56.953-1.125-113.681-13.5-165.516-36.337-51.891-22.753-98.916-55.772-137.756-96.3s-69.581-88.509-89.803-140.456c-20.306-51.919-30.009-107.691-28.772-162.844 1.125-55.153 13.163-109.997 35.269-160.144 22.050-50.175 54.028-95.653 93.262-133.2 39.206-37.575 85.669-67.247 135.9-86.766 50.203-19.603 104.091-28.912 157.444-27.703 53.353 1.125 106.313 12.797 154.744 34.2 48.459 21.347 92.391 52.284 128.644 90.225 36.281 37.913 64.912 82.828 83.728 131.344 11.447 29.419 19.238 60.103 23.316 91.238 1.097-0.056 2.194-0.113 3.319-0.113 31.078 0 56.25 25.172 56.25 56.25 0 1.575-0.084 3.15-0.197 4.697h0.197zM872.619 234.628c-20.616-46.772-50.512-89.128-87.159-124.088s-79.987-62.578-126.787-80.663c-46.772-18.169-96.947-26.775-146.672-25.566-49.753 1.153-98.972 12.066-143.972 32.063-45.056 19.913-85.866 48.769-119.531 84.122s-60.216 77.147-77.625 122.231c-17.466 45.084-25.678 93.347-24.497 141.3 1.153 47.953 11.728 95.288 30.994 138.6 19.209 43.341 47.025 82.603 81.084 114.975s74.306 57.881 117.675 74.588c43.369 16.762 89.775 24.609 135.9 23.428 46.153-1.153 91.603-11.363 133.2-29.925 41.625-18.506 79.313-45.253 110.419-78.019s55.547-71.437 71.522-113.091c16.031-41.653 23.541-86.175 22.331-130.528h0.197c-0.141-1.547-0.197-3.094-0.197-4.697 0-29.025 21.966-52.875 50.175-55.913-5.484-30.6-14.541-60.497-27.056-88.763z"  horiz-adv-x="1025" />

    
    <glyph glyph-name="close" unicode="&#58920;" d="M575.328 385.504l371.456 369.824c17.568 17.504 17.664 45.824 0.192 63.424-17.504 17.632-45.792 17.664-63.36 0.192l-371.584-369.888-368.32 369.728c-17.408 17.504-45.792 17.568-63.328 0.096-17.536-17.504-17.568-45.888-0.096-63.456l368.224-369.632-371.296-369.6c-17.568-17.504-17.664-45.824-0.192-63.424 8.736-8.8 20.256-13.216 31.776-13.216 11.424 0 22.848 4.352 31.584 13.056l371.36 369.696 371.68-373.088c8.768-8.832 20.256-13.216 31.744-13.216 11.456 0 22.912 4.384 31.648 13.088 17.504 17.504 17.568 45.824 0.096 63.392l-371.584 373.024zM575.328 385.504z"  horiz-adv-x="1024" />

    
    <glyph glyph-name="1" unicode="&#58935;" d="M512 896C228.072727 896 0 667.927273 0 384s228.072727-512 512-512 512 228.072727 512 512S795.927273 896 512 896zM512-81.454545C256-81.454545 46.545455 128 46.545455 384 46.545455 640 256 849.454545 512 849.454545s465.454545-209.454545 465.454545-465.454545C977.454545 128 768-81.454545 512-81.454545zM791.272727 407.272727 232.727273 407.272727c-13.963636 0-23.272727-11.636364-23.272727-23.272727s11.636364-23.272727 23.272727-23.272727L791.272727 360.727273c13.963636 0 23.272727 11.636364 23.272727 23.272727S802.909091 407.272727 791.272727 407.272727z"  horiz-adv-x="1024" />

    
    <glyph glyph-name="2" unicode="&#58936;" d="M512 896C228.072727 896 0 667.927273 0 384s228.072727-512 512-512 512 228.072727 512 512S795.927273 896 512 896zM512-81.454545C256-81.454545 46.545455 128 46.545455 384 46.545455 640 256 849.454545 512 849.454545s465.454545-209.454545 465.454545-465.454545C977.454545 128 768-81.454545 512-81.454545zM791.272727 407.272727 535.272727 407.272727 535.272727 663.272727c0 11.636364-11.636364 23.272727-23.272727 23.272727s-23.272727-11.636364-23.272727-23.272727l0-279.272727c0-11.636364 11.636364-23.272727 23.272727-23.272727l279.272727 0c11.636364 0 23.272727 11.636364 23.272727 23.272727S802.909091 407.272727 791.272727 407.272727z"  horiz-adv-x="1024" />

    
    <glyph glyph-name="right" unicode="&#58922;" d="M416.832 97.92C400.64 97.92 384.512 104.128 372.16 116.48L119.424 370.24C94.784 395.008 94.784 435.2 119.424 459.968 144.128 484.736 184.128 484.736 208.768 459.968L416.832 251.072 814.4 650.24C839.04 675.072 879.04 675.072 903.744 650.24 928.384 625.472 928.384 585.344 903.744 560.576L461.504 116.48C449.152 104.128 432.96 97.92 416.832 97.92Z"  horiz-adv-x="1024" />

    
    <glyph glyph-name="shape" unicode="&#58950;" d="M1157.409 391.055l-75.391-79.414-365.173-382.934c-9.918-12.852-24.419-21.494-41.374-21.494-29.857 0-54.117 25.479-54.117 56.965 0 13.864 5.279 26.042 13.063 35.918 2.452 3.311 3.839 4.771 5.383 6.23l366.185 385.403-374.716 394.382c-0.639 0.673-1.279 1.347-1.921 2.077l-2.613 2.693c-7.25 10.382-12.475 22.563-12.476 36.368 0 31.486 24.261 57.023 54.171 57.022 17.594 0 32.47-9.43 42.388-23.123l446.588-470.092z"  horiz-adv-x="1707" />

    
    <glyph glyph-name="shape-copy" unicode="&#58954;" d="M839.051 37.253l-79.414 75.391-382.934 365.173c-12.852 9.918-21.494 24.419-21.494 41.374 0 29.857 25.479 54.117 56.965 54.117 13.864 0 26.042-5.279 35.918-13.063 3.311-2.452 4.771-3.839 6.23-5.383l385.403-366.185 394.382 374.716c0.673 0.639 1.347 1.279 2.077 1.921l2.693 2.613c10.382 7.25 22.563 12.475 36.368 12.476 31.486 0 57.023-24.261 57.022-54.171 0-17.594-9.43-32.47-23.123-42.388l-470.092-446.588z"  horiz-adv-x="1707" />

    
    <glyph glyph-name="warn" unicode="&#58999;" d="M512.008 896c-281.6 0-512-230.4-512-512s230.4-512 512-512 512 230.4 512 512-230.4 512-512 512zM512.008 79.644c-22.756 0-42.667 19.911-42.667 42.667s19.911 42.667 42.667 42.667 42.667-19.911 42.667-42.667-19.911-42.667-42.667-42.667zM554.675 264.533c0-22.756-19.911-42.667-42.667-42.667s-42.667 19.911-42.667 42.667v369.778c0 22.756 19.911 42.667 42.667 42.667s42.667-19.911 42.667-42.667v-369.778z"  horiz-adv-x="1026" />

    
    <glyph glyph-name="shanchutupian" unicode="&#59004;" d="M510.820405-100.050103c-268.012713 0-485.996386 218.047486-485.996386 485.996386C24.824019 653.958995 242.807692 871.942668 510.820405 871.942668c267.9489 0 485.996386-218.047486 485.996386-485.996385S778.769305-100.050103 510.820405-100.050103zM510.820405 848.012962c254.803515 0 462.066679-207.263164 462.066679-462.066679S765.62392-76.120396 510.820405-76.120396 48.753726 131.142768 48.753726 385.946283 256.01689 848.012962 510.820405 848.012962m0 47.859413a509.926092 509.926092 0 1 1 0-1019.915997A509.926092 509.926092 0 0 1 510.820405 895.872375zM582.290462 385.946283l170.698573 170.698573a50.53954 50.53954 0 0 1-71.470057 71.470056L510.820405 457.41634 340.121832 628.114912a50.53954 50.53954 0 0 1-71.470057-71.470056L439.350348 385.946283l-170.698573-170.698573a50.53954 50.53954 0 0 1 71.470057-71.470057L510.820405 314.476226l170.698573-170.698573a50.53954 50.53954 0 0 1 71.470057 71.470057L582.290462 385.946283z"  horiz-adv-x="1024" />

    
    <glyph glyph-name="danxuan" unicode="&#59002;" d="M488.075636 78.848h98.676364L191.860364 473.739636 93.090909 375.063273 488.075636-20.014545l49.338182-49.338182 49.338182 49.338182 724.061091 724.06109L1212.136727 802.909091z"  horiz-adv-x="1396" />

    
    <glyph glyph-name="guanbi1" unicode="&#59006;" d="M512 485.973333L231.594667 766.293333a85.333333 85.333333 0 0 1-121.002667-0.341333 85.333333 85.333333 0 0 1-0.341333-121.002667l280.234666-280.32-280.234666-280.234666a85.333333 85.333333 0 0 1 0.341333-121.002667 85.333333 85.333333 0 0 1 121.002667-0.341333L511.914667 243.2l280.234666-280.149333a85.333333 85.333333 0 0 1 121.002667 0.341333 85.333333 85.333333 0 0 1 0.341333 120.917333L633.173333 364.629333l280.405334 280.405334a85.333333 85.333333 0 0 1-0.341334 121.002666 85.333333 85.333333 0 0 1-121.002666 0.341334L512 485.973333z"  horiz-adv-x="1024" />

    
    <glyph glyph-name="sousuo" unicode="&#59015;" d="M636.447499 180.163925A395.879638 395.879638 0 0 0 397.730463 100.539074C177.994227 100.539074 0 278.61206 0 498.269537 0 717.927015 178.033606 896 397.691084 896c219.618098 0 397.651704-178.072985 397.651704-397.730463 0-89.627182-29.613199-172.323614-79.624851-238.835174 6.143164-2.874686 11.931914-6.85199 17.051217-11.971293l273.725193-273.685814a59.462673 59.462673 0 0 0-0.03938-84.350361 59.502052 59.502052 0 0 0-84.310982-0.039379l-273.725193 273.725193c-5.119303 5.119303-9.096608 10.868674-11.971293 17.051216z m-238.756415-0.078758a318.18437 318.18437 0 0 1 318.144991 318.18437 318.18437 318.18437 0 1 1-636.289982 0 318.18437 318.18437 0 0 1 318.144991-318.18437z"  horiz-adv-x="1024" />

    
    <glyph glyph-name="checked-block" unicode="&#58880;" d="M512 873.439c-273.407 0-497.103-219.553-497.103-497.103 0-273.407 223.696-497.103 497.103-497.103s497.103 223.696 497.103 497.103c0 277.549-223.696 497.103-497.103 497.103zM433.292 152.64l-16.57-12.428-194.699 194.699 45.568 45.568 153.274-153.274 318.975 318.975 45.568-45.568-352.114-347.972z"  horiz-adv-x="1024" />

    
    <glyph glyph-name="delete-block" unicode="&#58881;" d="M512 834c-247.5 0-450-202.5-450-450s202.5-450 450-450 450 202.5 450 450-202.5 450-450 450zM707 365.249h-390c-15 0-30 11.25-30 30 0 15 11.25 26.25 30 26.25h393.75c15 0 30-11.25 30-30-3.75-15-15-26.25-33.75-26.25z"  horiz-adv-x="1024" />

    
    <glyph glyph-name="add-block" unicode="&#58882;" d="M512 896C230.4 896 0 665.6 0 384s230.4-512 512-512 512 230.4 512 512S793.6 896 512 896zm221.866667-546.133333l-192 0 0-192c0-17.066667-12.8-34.133333-34.133334-34.133334-17.066667 0-34.133333 12.8-34.133333 34.133334l0 192L290.133333 349.866667c-21.333333 0-34.133333 17.066667-34.133333 34.133333s12.8 34.133333 34.133333 34.133333l192 0L482.133333 605.866667c-4.266667 21.333333 12.8 34.133333 29.866667 34.133333 17.066667 0 34.133333-12.8 34.133333-34.133333l0-192 192 0c17.066667 0 34.133333-12.8 34.133334-34.133334-4.266667-12.8-17.066667-29.866667-38.4-29.866666z"  horiz-adv-x="1024" />

    
    <glyph glyph-name="warn-block" unicode="&#58884;" d="M517.973 695.466c-170.667 0-307.2-136.533-307.2-307.2s136.533-307.2 307.2-307.2 307.2 136.533 307.2 307.2-139.947 307.2-307.2 307.2zM521.387 207.36c-13.653 0-20.48 10.24-20.48 20.48s10.24 20.48 20.48 20.48 20.48-10.24 20.48-20.48-10.24-20.48-20.48-20.48zM541.867 316.586c0-13.653-10.24-20.48-20.48-20.48-13.653 0-20.48 10.24-20.48 20.48l0 218.453c0 13.653 10.24 20.48 20.48 20.48 13.653 0 20.48-10.24 20.48-20.48l0-218.453z"  horiz-adv-x="1024" />

    
    <glyph glyph-name="back" unicode="&#58885;" d="M288.038 389.349l433.551 433.607c7.419 7.666 11.991 18.127 11.991 29.656 0 23.564-19.103 42.667-42.667 42.667-11.515 0-21.963-4.561-29.639-11.976l-460.845-460.845c-9.526-7.883-15.549-19.709-15.549-32.941 0-11.885 4.86-22.635 12.7-30.372l462.17-462.227c7.726-7.719 18.395-12.492 30.18-12.492 23.583 0 42.7 19.118 42.7 42.7 0 11.797-4.785 22.48-12.521 30.208l-432.071 432.015z"  horiz-adv-x="1024" />

    
    <glyph glyph-name="qzone" unicode="&#58890;" d="M1003.52 510.293333l-296.96 61.44c-6.826667 0-13.653333 6.826667-17.066667 13.653334l-150.186666 262.826666c-10.24 17.066667-37.546667 17.066667-47.786667 0L337.92 585.386667c-3.413333-6.826667-10.24-10.24-17.066667-13.653334L23.893333 510.293333c-20.48-3.413333-27.306667-30.72-13.653333-44.373333l204.8-225.28c6.826667-6.826667 6.826667-13.653333 6.826667-20.48l-34.133334-300.373333c-3.413333-20.48 20.48-37.546667 37.546667-27.306667l276.48 122.88c6.826667 3.413333 13.653333 3.413333 23.893333 0l276.48-122.88c20.48-10.24 40.96 6.826667 37.546667 27.306667l-34.133333 300.373333c0 6.826667 0 17.066667 6.826666 20.48l204.8 225.28c13.653333 13.653333 6.826667 40.96-13.653333 44.373333m-269.653333-344.746666l-423.253334-10.24c-17.066667 0-34.133333 13.653333-30.72 30.72 0 10.24 6.826667 17.066667 13.653334 23.893333l314.026666 228.693333c6.826667 3.413333 3.413333 13.653333-3.413333 13.653334l-269.653333 13.653333c-6.826667 0-13.653333 6.826667-13.653334 13.653333s6.826667 10.24 13.653334 13.653334l372.053333 3.413333c20.48 0 40.96-17.066667 37.546667-37.546667 0-6.826667-3.413333-10.24-6.826667-13.653333l-303.786667-221.866667c-10.24-6.826667-3.413333-20.48 6.826667-23.893333l296.96-17.066667c3.413333 0 10.24-3.413333 10.24-10.24-3.413333-3.413333-6.826667-6.826667-13.653333-6.826666"  horiz-adv-x="1024" />

    
    <glyph glyph-name="tongshi" unicode="&#58898;" d="M146.773333 114.346667c-54.613333 71.68-85.333333 163.84-85.333333 259.413333 0 245.76 197.973333 443.733333 443.733333 443.733333s443.733333-197.973333 443.733334-443.733333-197.973333-443.733333-443.733334-443.733333c-75.093333 0-146.773333 20.48-208.213333 51.2l-184.32-37.546667 34.133333 170.666667z"  horiz-adv-x="1024" />

    
    <glyph glyph-name="pengyouquan" unicode="&#58892;" d="M931.84 612.693333c-54.613333 98.986667-143.36 177.493333-249.173333 218.453334l0-464.213334 249.173333 245.76zM948.906667 578.56l-307.2-307.2-20.48-20.48 351.573333 0c13.653333 44.373333 20.48 88.746667 20.48 136.533333-3.413333 64.853333-17.066667 129.706667-44.373333 191.146667zM406.186667 520.533333 54.613333 520.533333c-13.653333-44.373333-20.48-88.746667-20.48-136.533333 0-68.266667 13.653333-133.12 40.96-194.56l314.026667 314.026667c3.413333 6.826667 10.24 10.24 17.066667 17.066666zM648.533333 489.813333 648.533333 841.386667c-44.373333 13.653333-88.746667 20.48-136.533333 20.48-68.266667 0-133.12-13.653333-194.56-40.96l307.2-307.2c10.24-6.826667 17.066667-13.653333 23.893333-23.893334zM512 558.08l20.48 0L283.306667 803.84C184.32 749.226667 105.813333 660.48 64.853333 554.666667l440.32 0c3.413333 0 3.413333 3.413333 6.826667 3.413333zM375.466667 278.186667l0-351.573334c44.373333-13.653333 88.746667-20.48 136.533333-20.48 68.266667 0 133.12 13.653333 194.56 40.96l-314.026667 314.026667c-6.826667 3.413333-10.24 10.24-17.066666 17.066667zM512 209.92l-20.48 0 249.173333-249.173333c98.986667 54.613333 177.493333 139.946667 218.453334 249.173333L518.826667 209.92c-3.413333 3.413333-3.413333 0-6.826667 0zM337.92-63.146667 337.92 384l0 20.48-249.173333-249.173333c58.026667-98.986667 143.36-177.493333 249.173333-218.453334z"  horiz-adv-x="1024" />

    
    <glyph glyph-name="sina" unicode="&#58893;" d="M474.453333 462.506667c-98.986667 0-180.906667-78.506667-180.906666-177.493334 0-98.986667 81.92-177.493333 180.906666-177.493333s180.906667 78.506667 180.906667 177.493333c0 98.986667-81.92 177.493333-180.906667 177.493334zm-61.44-279.893334c-34.133333 0-61.44 27.306667-61.44 61.44s27.306667 61.44 61.44 61.44 61.44-27.306667 61.44-61.44-27.306667-61.44-61.44-61.44zM890.88 493.226667c10.24 34.133333 6.826667 68.266667-10.24 92.16-30.72 47.786667-105.813333 58.026667-194.56 34.133333 6.826667 47.786667 0 88.746667-27.306667 119.466667C583.68 827.733333 378.88 779.946667 208.213333 629.76 78.506667 517.12 0 377.173333 3.413333 281.6l0-6.826667c0-187.733333 215.04-334.506667 477.866667-324.266666C832.853333-39.253333 1024 172.373333 1024 322.56c0 68.266667-54.613333 126.293333-133.12 170.666667zM494.933333 22.186667c-197.973333-10.24-365.226667 98.986667-372.053333 245.76-6.826667 146.773333 146.773333 273.066667 344.746667 283.306666 197.973333 10.24 365.226667-98.986667 372.053333-245.76 10.24-146.773333-146.773333-273.066667-344.746667-283.306666z"  horiz-adv-x="1024" />

    
    <glyph glyph-name="qq" unicode="&#58894;" d="M942.08 329.386667c-30.72 61.44-71.68 109.226667-109.226667 129.706666-6.826667 13.653333-10.24 30.72-17.066666 44.373334 3.413333 20.48 6.826667 40.96 6.826666 64.853333 0 157.013333-126.293333 279.893333-283.306666 279.893333-157.013333 0-283.306667-126.293333-283.306667-279.893333 0-20.48 3.413333-44.373333 6.826667-64.853333-6.826667-13.653333-10.24-30.72-17.066667-44.373334-37.546667-20.48-78.506667-68.266667-109.226667-129.706666-47.786667-95.573333-47.786667-194.56-3.413333-215.04 20.48-10.24 51.2-3.413333 81.92 20.48 17.066667-30.72 34.133333-58.026667 58.026667-81.92-47.786667-13.653333-81.92-40.96-78.506667-68.266667 3.413333-40.96 68.266667-75.093333 150.186667-71.68 54.613333 0 102.4 20.48 126.293333 44.373333 20.48-3.413333 44.373333-6.826667 68.266667-6.826666s44.373333 3.413333 68.266666 6.826666c23.893333-23.893333 71.68-40.96 126.293334-44.373333 81.92-3.413333 150.186667 30.72 150.186666 71.68 0 30.72-30.72 54.613333-78.506666 68.266667 23.893333 23.893333 44.373333 51.2 54.613333 81.92 30.72-20.48 58.026667-30.72 81.92-20.48 47.786667 20.48 47.786667 119.466667 0 215.04z"  horiz-adv-x="1024" />

    
    <glyph glyph-name="email" unicode="&#58895;" d="M600.746667 472.746667l368.64 238.933333s3.413333 0 3.413333 3.413333c-20.48 20.48-47.786667 34.133333-78.506667 34.133334L160.426667 749.226667c-30.72 0-58.026667-13.653333-75.093334-30.72l385.706667-245.76c34.133333-23.893333 95.573333-23.893333 129.706667 0zM655.36 394.24c-34.133333-20.48-75.093333-34.133333-119.466667-34.133333-40.96 0-85.333333 10.24-116.053333 30.72L47.786667 626.346667l0-484.693334c0-61.44 51.2-109.226667 109.226666-109.226666l733.866667 0c61.44 0 109.226667 47.786667 109.226667 109.226666L1000.106667 622.933333l-344.746667-228.693333z"  horiz-adv-x="1024" />

    
    <glyph glyph-name="tongshiquan" unicode="&#58896;" d="M962.56 329.386667c-13.653333 20.48-34.133333 40.96-61.44 58.026666 54.613333 34.133333 88.746667 92.16 85.333333 160.426667 0 51.2-20.48 95.573333-58.026666 129.706667-34.133333 34.133333-81.92 51.2-133.12 51.2-23.893333 0-51.2-10.24-78.506667-23.893334 0 13.653333-3.413333 30.72-6.826667 44.373334-13.653333 47.786667-44.373333 85.333333-88.746666 112.64-44.373333 23.893333-92.16 30.72-139.946667 17.066666-47.786667-13.653333-88.746667-44.373333-112.64-88.746666-10.24-20.48-17.066667-47.786667-20.48-78.506667-51.2 34.133333-119.466667 34.133333-177.493333 0-44.373333-23.893333-75.093333-64.853333-85.333334-112.64-13.653333-47.786667-3.413333-98.986667 20.48-139.946667 13.653333-20.48 34.133333-40.96 61.44-58.026666a191.146667 191.146667 0 0 0-85.333333-160.426667c0-51.2 20.48-95.573333 58.026667-129.706667 34.133333-34.133333 81.92-51.2 129.706666-51.2L273.066667 59.733333c23.893333 0 47.786667 10.24 75.093333 20.48 0-17.066667 3.413333-30.72 6.826667-47.786666 13.653333-47.786667 44.373333-85.333333 88.746666-112.64 27.306667-17.066667 58.026667-23.893333 88.746667-23.893334 64.853333 0 129.706667 34.133333 163.84 95.573334 10.24 20.48 17.066667 47.786667 20.48 81.92 27.306667-13.653333 58.026667-23.893333 88.746667-23.893334 34.133333 0 64.853333 10.24 95.573333 27.306667 85.333333 51.2 116.053333 163.84 61.44 252.586667zm-160.426667 314.026666c27.306667 0 51.2-10.24 68.266667-27.306666s30.72-40.96 30.72-68.266667c0-54.613333-40.96-98.986667-95.573333-98.986667-3.413333 0-10.24 0-20.48 3.413334l-51.2 20.48c-34.133333 17.066667-75.093333 40.96-112.64 68.266666 13.653333 10.24 23.893333 17.066667 34.133333 27.306667 61.44 40.96 119.466667 75.093333 146.773333 75.093333zm-184.32-310.613333c-20.48-10.24-54.613333-23.893333-88.746666-40.96-20.48 13.653333-51.2 37.546667-88.746667 61.44 3.413333 23.893333 6.826667 58.026667 6.826667 95.573333 20.48 10.24 54.613333 23.893333 92.16 40.96 20.48-13.653333 51.2-37.546667 88.746666-61.44-3.413333-17.066667-6.826667-54.613333-10.24-95.573333zM450.56 752.64c13.653333 23.893333 34.133333 37.546667 58.026667 44.373333 10.24 3.413333 17.066667 3.413333 27.306666 3.413334 17.066667 0 34.133333-3.413333 47.786667-13.653334 23.893333-13.653333 40.96-34.133333 47.786667-58.026666 6.826667-23.893333 3.413333-51.2-6.826667-75.093334-3.413333-3.413333-6.826667-10.24-13.653333-17.066666-17.066667-10.24-30.72-23.893333-44.373334-34.133334-30.72-20.48-71.68-40.96-112.64-61.44 0 13.653333-3.413333 27.306667-3.413333 40.96-13.653333 78.506667-13.653333 146.773333 0 170.666667zM170.666667 575.146667c6.826667 27.306667 20.48 47.786667 44.373333 61.44 17.066667 10.24 34.133333 13.653333 51.2 13.653333 34.133333 0 64.853333-17.066667 81.92-47.786667 3.413333-3.413333 6.826667-13.653333 6.826667-20.48 3.413333-17.066667 3.413333-37.546667 6.826666-51.2 0-37.546667 0-85.333333-3.413333-129.706666-17.066667 6.826667-30.72 13.653333-44.373333 17.066666-64.853333 30.72-119.466667 61.44-133.12 85.333334-13.653333 20.48-17.066667 47.786667-10.24 71.68zM269.653333 145.066667c-27.306667 0-51.2 10.24-68.266666 27.306666-20.48 17.066667-30.72 40.96-30.72 68.266667 0 54.613333 40.96 98.986667 95.573333 98.986667 3.413333 0 6.826667 0 13.653333-3.413334 23.893333-10.24 47.786667-20.48 64.853334-27.306666 30.72-17.066667 68.266667-40.96 102.4-64.853334-68.266667-51.2-146.773333-98.986667-177.493334-98.986666zm348.16-112.64c-27.306667-47.786667-85.333333-64.853333-133.12-37.546667-23.893333 13.653333-40.96 34.133333-47.786666 58.026667-6.826667 23.893333-3.413333 51.2 6.826666 75.093333 13.653333 27.306667 92.16 75.093333 174.08 109.226667 13.653333-85.333333 13.653333-177.493333 0-204.8zm235.52 119.466666c-47.786667-27.306667-105.813333-13.653333-133.12 34.133334-17.066667 27.306667-17.066667 116.053333-10.24 204.8 13.653333-6.826667 23.893333-10.24 37.546667-13.653334 68.266667-30.72 126.293333-64.853333 139.946667-88.746666 27.306667-51.2 13.653333-109.226667-34.133334-136.533334z"  horiz-adv-x="1024" />

    
    <glyph glyph-name="wechat" unicode="&#58897;" d="M2116.267-8.533v10.24l6.827-3.413zM2106.027-5.12l10.24-3.413-6.827-6.827zM857.749 868.071c-240.266 0-439.107-165.7-439.107-376.97 0-120.133 66.281-219.553 173.985-298.261l-45.568-132.561 153.274 78.708c53.852-12.428 99.42-20.714 153.274-20.714h24.854c-8.285 33.14-16.57 66.281-16.57 99.42 0 202.983 190.556 368.685 422.538 368.685h8.285c-49.711 161.558-227.839 281.692-434.964 281.692zM716.902 569.809c-33.14 0-66.281 20.714-66.281 53.852s33.14 53.852 66.281 53.852 53.852-20.714 53.852-53.852-20.714-53.852-53.852-53.852zM1023.449 569.809c-33.14 0-66.281 20.714-66.281 53.852s33.14 53.852 66.281 53.852 53.852-20.714 53.852-53.852-20.714-53.852-53.852-53.852zM1661.396 213.553c0 178.128-173.985 318.975-372.827 318.975-211.268 0-372.827-144.988-372.827-318.975 0-178.128 165.7-318.975 372.827-318.975 45.568 0 86.993 12.428 132.561 20.714l120.133-66.281-33.14 111.849c86.993 66.281 153.274 153.274 153.274 252.693zM1168.439 271.547c-20.714 0-45.568 20.714-45.568 45.568 0 20.714 20.714 45.568 45.568 45.568 33.14 0 53.852-20.714 53.852-45.568 0-24.854-20.714-45.568-53.852-45.568zM1408.704 271.547c-20.714 0-45.568 20.714-45.568 45.568 0 20.714 20.714 45.568 45.568 45.568 33.14 0 53.852-20.714 53.852-45.568 0-24.854-20.714-45.568-53.852-45.568z"  horiz-adv-x="2123" />

    
    <glyph glyph-name="weibiaoti-" unicode="&#59061;" d="M522.24 407.893333h-163.84c-13.653333 0-23.893333-10.24-23.893333-27.306666 0-13.653333 10.24-27.306667 23.893333-27.306667h163.84v-163.84c0-13.653333 10.24-23.893333 27.306667-23.893333 13.653333 0 27.306667 10.24 27.306666 23.893333v163.84h163.84c13.653333 0 23.893333 10.24 23.893334 27.306667 0 13.653333-10.24 27.306667-23.893334 27.306666h-163.84V571.733333c0 13.653333-10.24 23.893333-27.306666 23.893334-13.653333 0-27.306667-10.24-27.306667-23.893334v-163.84zM836.266667-8.533333H750.933333v34.133333h85.333334c13.653333 0 27.306667 3.413333 37.546666 10.24l20.48-27.306667c-17.066667-13.653333-37.546667-17.066667-58.026666-17.066666zM587.093333 25.6h133.12v-34.133333h-133.12zM416.426667 25.6h133.12v-34.133333h-133.12zM382.293333-8.533333h-136.533333l3.413333 34.133333H382.293333v-34.133333zM208.213333 1.706667c-34.133333 17.066667-54.613333 51.2-54.613333 92.16v40.96h34.133333v-40.96c0-23.893333 13.653333-47.786667 37.546667-61.44l-17.066667-30.72zM921.6 35.84l-27.306667 20.48c6.826667 10.24 10.24 23.893333 10.24 37.546667V179.2h34.133334v-85.333333c0-20.48-3.413333-40.96-17.066667-58.026667zM153.6 302.08h34.133333v-133.12h-34.133333zM904.533333 346.453333h34.133334V213.333333h-34.133334zM153.6 469.333333h34.133333v-133.12h-34.133333zM904.533333 513.706667h34.133334v-133.12h-34.133334zM153.6 640h34.133333v-133.12h-34.133333zM938.666667 547.84h-34.133334V674.133333v6.826667l34.133334 3.413333v-136.533333zM153.6 670.72c0 58.026667 44.373333 102.4 102.4 102.4v-34.133333c-37.546667 0-68.266667-30.72-68.266667-68.266667h-34.133333zM897.706667 704.853333c-13.653333 23.893333-34.133333 37.546667-61.44 37.546667h-40.96v34.133333h40.96c37.546667 0 71.68-20.48 88.746666-54.613333l-27.306666-17.066667zM628.053333 776.533333h133.12v-34.133333h-133.12zM457.386667 776.533333h133.12v-34.133333h-133.12zM290.133333 776.533333h133.12v-34.133333H290.133333z"  horiz-adv-x="1024" />

    
    <glyph glyph-name="shape-copy-copy" unicode="&#58955;" d="M867.605 709.414l79.414-75.391 382.934-365.173c12.852-9.918 21.494-24.419 21.494-41.374 0-29.857-25.479-54.117-56.965-54.117-13.864 0-26.042 5.279-35.918 13.063-3.311 2.452-4.771 3.839-6.23 5.383l-385.403 366.185-394.382-374.716c-0.673-0.639-1.347-1.279-2.077-1.921l-2.693-2.613c-10.382-7.25-22.563-12.475-36.368-12.476-31.486 0-57.023 24.261-57.022 54.171 0 17.594 9.43 32.47 23.123 42.388l470.092 446.588z"  horiz-adv-x="1707" />

    
    <glyph glyph-name="chenggongICONCopy" unicode="&#59070;" d=""  horiz-adv-x="1024" />

    
    <glyph glyph-name="weibiaoti-1" unicode="&#59072;" d="M720.213333 766.293333H327.68C215.04 766.293333 139.946667 691.2 139.946667 578.56v-392.533333c0-112.64 75.093333-187.733333 187.733333-187.733334h392.533333c112.64 0 187.733333 75.093333 187.733334 187.733334V581.973333c0 112.64-75.093333 184.32-187.733334 184.32z m170.666667-580.266666c0-102.4-68.266667-170.666667-170.666667-170.666667H327.68c-102.4 0-170.666667 68.266667-170.666667 170.666667V581.973333c0 102.4 68.266667 170.666667 170.666667 170.666667h392.533333c102.4 0 170.666667-68.266667 170.666667-170.666667v-395.946666zM522.24 534.186667c-81.92 0-150.186667-68.266667-150.186667-150.186667 0-81.92 68.266667-150.186667 150.186667-150.186667 81.92 0 150.186667 68.266667 150.186667 150.186667 0 81.92-68.266667 150.186667-150.186667 150.186667z m0-283.306667c-75.093333 0-133.12 61.44-133.12 133.12s61.44 133.12 133.12 133.12 133.12-61.44 133.12-133.12-58.026667-133.12-133.12-133.12zM860.16 69.973333v163.84h37.546667v17.066667h-37.546667v126.293333h37.546667v17.066667h-37.546667V520.533333h37.546667v17.066667h-37.546667V698.026667l-20.48 20.48h-163.84V759.466667h-17.066667v-40.96h-122.88-3.413333V759.466667h-17.066667v-40.96h-122.88V759.466667H375.466667v-40.96H204.8l-17.066667-17.066667v-167.253333H146.773333v-17.066667h40.96v-122.88H146.773333v-17.066667h40.96v-126.293333H146.773333v-17.066667h40.96v-163.84l20.48-20.48h163.84V8.533333h17.066667v37.546667h126.293333V8.533333h17.066667v37.546667h126.293333V8.533333h17.066667v37.546667h163.84c6.826667 6.826667 13.653333 13.653333 20.48 23.893333zM204.8 691.2l75.093333-75.093333c-23.893333-23.893333-40.96-51.2-58.026666-81.92H204.8V691.2z m85.333333-88.746667l68.266667-68.266666H242.346667c13.653333 23.893333 30.72 47.786667 47.786666 68.266666zM204.8 517.12h10.24c-3.413333-10.24-6.826667-17.066667-10.24-27.306667v27.306667z m0-119.466667c0 44.373333 10.24 85.333333 27.306667 119.466667h126.293333c-27.306667-34.133333-44.373333-78.506667-47.786667-126.293333H204.8v6.826666z m0-23.893333h109.226667c3.413333-47.786667 20.48-92.16 47.786666-126.293333H235.52c-20.48 40.96-30.72 81.92-30.72 126.293333z m153.6-139.946667l-68.266667-68.266666c-20.48 20.48-37.546667 44.373333-47.786666 68.266666h116.053333zM204.8 278.186667c3.413333-10.24 6.826667-17.066667 10.24-27.306667H204.8v27.306667z m0-44.373334h20.48c13.653333-30.72 34.133333-54.613333 54.613333-78.506666L204.8 76.8v157.013333z m167.253333-170.666666H215.04l75.093333 75.093333c23.893333-23.893333 51.2-40.96 81.92-58.026667v-17.066666z m0 40.96c-23.893333 13.653333-47.786667 30.72-68.266666 51.2l68.266666 68.266666v-119.466666z m0 160.426666c-23.893333 30.72-40.96 68.266667-40.96 109.226667h40.96v-109.226667z m0 126.293334H331.093333c3.413333 40.96 17.066667 81.92 40.96 112.64v-112.64z m0 157.013333l-68.266666 68.266667c20.48 20.48 44.373333 37.546667 68.266666 51.2v-119.466667z m0 136.533333c-30.72-13.653333-58.026667-34.133333-81.92-58.026666L215.04 701.44h157.013333v-17.066667z m17.066667 17.066667h27.306667c-10.24-3.413333-17.066667-6.826667-27.306667-10.24v10.24z m0-197.973333l112.64-112.64h-112.64v112.64z m0-129.706667h112.64l-112.64-112.64v112.64z m0-310.613333V76.8l30.72-10.24h-30.72z m126.293333 3.413333c-44.373333 0-85.333333 10.24-126.293333 30.72v126.293333c34.133333-27.306667 78.506667-44.373333 126.293333-47.786666v-109.226667z m0 126.293333c-40.96 0-78.506667 17.066667-109.226666 40.96h109.226666v-40.96z m0 58.026667h-116.053333l116.053333 116.053333v-116.053333z m0 153.6l-112.64 112.64h112.64v-112.64z m0 129.706667h-112.64c30.72 23.893333 68.266667 40.96 112.64 40.96v-40.96z m0 58.026666c-47.786667-3.413333-92.16-20.48-126.293333-47.786666V674.133333c37.546667 17.066667 78.506667 27.306667 122.88 27.306667h3.413333v-109.226667z m17.066667-17.066666c40.96-3.413333 78.506667-17.066667 109.226667-40.96h-109.226667V575.146667z m0-58.026667h112.64l-112.64-112.64v112.64z m0-153.6l112.64-112.64h-112.64v112.64z m0-129.706667h109.226667c-30.72-23.893333-68.266667-37.546667-109.226667-40.96v40.96z m122.88-170.666666h-30.72l30.72 10.24v-10.24z m0 34.133333c-37.546667-17.066667-81.92-27.306667-126.293333-30.72v109.226667c47.786667 3.413333 92.16 20.48 126.293333 47.786666v-126.293333z m0 163.84l-112.64 112.64h112.64v-112.64z m0 129.706667h-116.053333l116.053333 116.053333v-116.053333z m0 153.6c-34.133333 27.306667-78.506667 47.786667-126.293333 47.786666V701.44h3.413333c44.373333 0 85.333333-13.653333 122.88-30.72v-126.293333z m0 146.773333c-10.24 3.413333-17.066667 6.826667-27.306667 10.24h27.306667V691.2z m17.066667 10.24h153.6L750.933333 626.346667c-23.893333 23.893333-51.2 40.96-78.506666 54.613333v20.48z m10.24-450.56c27.306667 34.133333 47.786667 78.506667 47.786666 126.293333h109.226667c0-44.373333-10.24-85.333333-30.72-126.293333H682.666667z m119.466666-17.066667c-13.653333-23.893333-30.72-47.786667-47.786666-68.266666l-68.266667 68.266666h116.053333z m-71.68 157.013334c-3.413333 47.786667-20.48 92.16-47.786666 126.293333h126.293333c17.066667-37.546667 27.306667-81.92 30.72-126.293333h-109.226667z m-44.373333 143.36l68.266667 68.266666c20.48-20.48 37.546667-44.373333 51.2-68.266666h-119.466667z m-13.653333 129.706666c23.893333-13.653333 47.786667-30.72 68.266666-47.786666l-68.266666-68.266667V663.893333z m0-160.426666c23.893333-30.72 37.546667-68.266667 40.96-109.226667h-40.96v109.226667z m0-129.706667h40.96c-3.413333-40.96-17.066667-78.506667-40.96-109.226667v109.226667z m0-153.6l68.266666-68.266667c-20.48-20.48-44.373333-37.546667-68.266666-47.786666v116.053333z m0-157.013333v20.48c30.72 13.653333 54.613333 34.133333 78.506666 54.613333l75.093334-75.093333h-153.6z m170.666666 13.653333l-75.093333 75.093333c23.893333 23.893333 40.96 51.2 54.613333 78.506667h20.48V76.8z m0 174.08h-10.24l10.24 30.72v-30.72z m0 235.52l-10.24 30.72h10.24v-30.72z m0 47.786667h-20.48c-13.653333 30.72-34.133333 58.026667-58.026666 81.92L843.093333 691.2v-157.013333z"  horiz-adv-x="1024" />

    
    <glyph glyph-name="shape-copy1" unicode="&#59313;" d="M557.206 377.385l70.679 74.451 342.35 359.001c9.298 12.049 22.893 20.151 38.788 20.151 27.991 0 50.735-23.887 50.735-53.405 0-12.998-4.949-24.414-12.247-33.673-2.299-3.104-3.599-4.473-5.047-5.841l-343.298-361.315 351.296-369.733c0.599-0.631 1.199-1.263 1.801-1.947l2.45-2.525c6.797-9.733 11.695-21.153 11.696-34.095 0-29.518-22.745-53.459-50.785-53.458-16.494 0-30.441 8.841-39.739 21.678l-418.676 440.711z"  horiz-adv-x="1707" />

    
    <glyph glyph-name="guanbianjianchangtai" unicode="&#59189;" d="M512.1-87.1c-119.5 0-238.9 45.4-329.9 136.5C94.1 137.5 45.5 254.7 45.5 379.3S94 621.1 182.2 709.2c88.1 88.1 205.3 136.7 330 136.7 124.6 0 241.8-48.5 329.9-136.7 181.9-181.9 181.9-477.9 0-659.8-91-91.1-210.5-136.5-330-136.5z m0.1 888.6c-112.8 0-218.8-44-298.6-123.7C133.9 598 89.9 492.1 89.9 379.3s44-218.8 123.7-298.6c164.6-164.5 432.4-164.5 597.1 0 164.5 164.7 164.5 432.5 0 597.1C731 757.5 624.9 801.5 512.2 801.5zM515.3 319.6L358.2 162.5c-17.4-17.4-45.5-17.4-62.8 0-17.4 17.4-17.4 45.5 0 62.8l157.1 157.1-157.2 157.2c-17.4 17.4-17.4 45.5 0 62.8 17.4 17.4 45.5 17.4 62.8 0l157.1-157.1 157.1 157.1c17.4 17.4 45.5 17.4 62.8 0 17.4-17.4 17.4-45.5 0-62.8l-157-157.2 157.1-157.1c17.4-17.4 17.4-45.5 0-62.8-17.4-17.4-45.5-17.4-62.8 0L515.3 319.6z"  horiz-adv-x="1024" />

    
    <glyph glyph-name="guanbianjiandianji" unicode="&#59190;" d="M512.1-87.1c-119.5 0-238.9 45.4-329.9 136.5C94.1 137.5 45.5 254.7 45.5 379.3S94 621.1 182.2 709.2c88.1 88.1 205.3 136.7 330 136.7 124.6 0 241.8-48.5 329.9-136.7 181.9-181.9 181.9-477.9 0-659.8-91-91.1-210.5-136.5-330-136.5z m0.1 888.6c-112.8 0-218.8-44-298.6-123.7C133.9 598 89.9 492.1 89.9 379.3s44-218.8 123.7-298.6c164.6-164.5 432.4-164.5 597.1 0 164.5 164.7 164.5 432.5 0 597.1C731 757.5 624.9 801.5 512.2 801.5zM515.3 319.6L358.2 162.5c-17.4-17.4-45.5-17.4-62.8 0-17.4 17.4-17.4 45.5 0 62.8l157.1 157.1-157.2 157.2c-17.4 17.4-17.4 45.5 0 62.8 17.4 17.4 45.5 17.4 62.8 0l157.1-157.1 157.1 157.1c17.4 17.4 45.5 17.4 62.8 0 17.4-17.4 17.4-45.5 0-62.8l-157-157.2 157.1-157.1c17.4-17.4 17.4-45.5 0-62.8-17.4-17.4-45.5-17.4-62.8 0L515.3 319.6z"  horiz-adv-x="1024" />

    


  </font>
</defs>
</svg>
